<?xml version="1.0" encoding="UTF-8"?>
<svg xmlns="http://www.w3.org/2000/svg" xmlns:xlink="http://www.w3.org/1999/xlink" width="24px" height="24px" viewBox="0 0 512 512"
    version="1.1">
    <g stroke="none" stroke-width="1" fill="none" fill-rule="evenodd">
        <path fill="#000000" d="M464 32H48A48 48 0 0 0 0 80v352a48 48 0 0 0 48 48h416a48 48 0 0 0 48-48V80a48 48 0 0 0-48-48zM128 392a40 40 0 1 1 40-40 40 40 0 0 1-40 40zm0-96a40 40 0 1 1 40-40 40 40 0 0 1-40 40zm0-96a40 40 0 1 1 40-40 40 40 0 0 1-40 40zm288 168a12 12 0 0 1-12 12H204a12 12 0 0 1-12-12v-32a12 12 0 0 1 12-12h200a12 12 0 0 1 12 12zm0-96a12 12 0 0 1-12 12H204a12 12 0 0 1-12-12v-32a12 12 0 0 1 12-12h200a12 12 0 0 1 12 12zm0-96a12 12 0 0 1-12 12H204a12 12 0 0 1-12-12v-32a12 12 0 0 1 12-12h200a12 12 0 0 1 12 12z" opacity="0.3"></path>
        <path fill="#000000" d="M128 200a40 40 0 1 0-40-40 40 40 0 0 0 40 40zm0 16a40 40 0 1 0 40 40 40 40 0 0 0-40-40zm0 96a40 40 0 1 0 40 40 40 40 0 0 0-40-40z"></path>
    </g>
</svg>