<?xml version="1.0" encoding="UTF-8"?>
<svg xmlns="http://www.w3.org/2000/svg" xmlns:xlink="http://www.w3.org/1999/xlink" width="24px" height="24px" viewBox="0 0 448 512"
version="1.1">
    <g stroke="none" stroke-width="1" fill="none" fill-rule="evenodd">
        <path fill="#000000" d="M80 0H48a16 16 0 0 0-16 16v80h64V16A16 16 0 0 0 80 0zm112 496a16 16 0 0 0 16 16h32a16 16 0 0 0 16-16v-48h-64zm-160 0a16 16 0 0 0 16 16h32a16 16 0 0 0 16-16V192H32zM240 0h-32a16 16 0 0 0-16 16v336h64V16a16 16 0 0 0-16-16zm112 496a16 16 0 0 0 16 16h32a16 16 0 0 0 16-16V320h-64zM400 0h-32a16 16 0 0 0-16 16v208h64V16a16 16 0 0 0-16-16z" opacity="0.3"></path>
        <path fill="#000000" d="M112 96H16a16 16 0 0 0-16 16v32a16 16 0 0 0 16 16h96a16 16 0 0 0 16-16v-32a16 16 0 0 0-16-16zm320 128h-96a16 16 0 0 0-16 16v32a16 16 0 0 0 16 16h96a16 16 0 0 0 16-16v-32a16 16 0 0 0-16-16zM272 352h-96a16 16 0 0 0-16 16v32a16 16 0 0 0 16 16h96a16 16 0 0 0 16-16v-32a16 16 0 0 0-16-16z"></path>
    </g>
</svg>