<?xml version="1.0" encoding="UTF-8"?>
<svg xmlns="http://www.w3.org/2000/svg" xmlns:xlink="http://www.w3.org/1999/xlink" width="24px" height="24px" viewBox="0 0 640 512"
    version="1.1">
    <g stroke="none" stroke-width="1" fill="none" fill-rule="evenodd">
        <path fill="#000000" d="M128 304a48 48 0 0 0 96 0V160h-96zm288-144v144a48 48 0 0 0 96 0V160z" opacity="0.3"></path>
        <path fill="#000000" d="M360 64h24v240a80 80 0 0 0 160 0V64h24a8 8 0 0 0 8-8V8a8 8 0 0 0-8-8H360a8 8 0 0 0-8 8v48a8 8 0 0 0 8 8zm72 0h64v240a32 32 0 0 1-64 0zm192 384H16a16 16 0 0 0-16 16v32a16 16 0 0 0 16 16h608a16 16 0 0 0 16-16v-32a16 16 0 0 0-16-16zM72 64h24v240a80 80 0 0 0 160 0V64h24a8 8 0 0 0 8-8V8a8 8 0 0 0-8-8H72a8 8 0 0 0-8 8v48a8 8 0 0 0 8 8zm72 0h64v240a32 32 0 0 1-64 0z"></path>
    </g>
</svg>